<svg width="28" height="38" viewBox="0 0 28 38" fill="none" xmlns="http://www.w3.org/2000/svg">
<path d="M12.2376 0.16375C11.6362 -0.111566 10.9422 -0.0427372 10.4101 0.393181L4.95057 4.82119L2.08202 5.09651C0.902208 5.21122 0 6.17483 0 7.36786V11.6353C0 12.8054 0.902208 13.7919 2.08202 13.9066L4.95057 14.182L10.4101 18.61C10.734 18.8624 11.1041 19 11.4974 19C11.7518 19 12.0063 18.9541 12.2376 18.8394C12.8391 18.5641 13.2092 17.9676 13.2092 17.3022V1.76976C13.2324 1.03559 12.8391 0.46201 12.2376 0.16375ZM11.2198 16.6369L5.78339 12.2089L2.29021 11.8877C2.15141 11.8647 2.03575 11.75 2.03575 11.6123V7.34493C2.03575 7.20727 2.15141 7.06961 2.29021 7.06961L5.78339 6.7484L11.2198 2.32039V16.6369Z" transform="scale(2)" fill="white"/>
</svg>
