<svg width="44" height="38" viewBox="0 0 44 38" fill="none" xmlns="http://www.w3.org/2000/svg">
<path d="M12.2376 0.16375C11.6362 -0.111566 10.9422 -0.0427372 10.4101 0.393181L4.95057 4.82119L2.08202 5.09651C0.902208 5.21122 0 6.17483 0 7.36786V11.6353C0 12.8054 0.902208 13.7919 2.08202 13.9066L4.95057 14.182L10.4101 18.61C10.734 18.8624 11.1041 19 11.4974 19C11.7518 19 12.0063 18.9541 12.2376 18.8394C12.8391 18.5641 13.2092 17.9676 13.2092 17.3022V1.76976C13.2324 1.03559 12.8391 0.46201 12.2376 0.16375ZM11.2198 16.6369L5.78339 12.2089L2.29021 11.8877C2.15141 11.8647 2.03575 11.75 2.03575 11.6123V7.34493C2.03575 7.20727 2.15141 7.06961 2.29021 7.06961L5.78339 6.7484L11.2198 2.32039V16.6369Z" transform="scale(2)" fill="white"/>
<path d="M1.54855 0.170343C1.38661 -0.0361441 1.08588 -0.05909 0.900812 0.124455L0.137408 0.812746C-0.0245265 0.973348 -0.0476629 1.22573 0.0911383 1.40927C0.947079 2.4876 1.47915 3.84123 1.47915 5.33253C1.47915 6.82383 0.970213 8.17747 0.0911383 9.25579C-0.0476629 9.43934 -0.0245265 9.69172 0.137408 9.85232L0.900812 10.5406C1.08588 10.7012 1.38661 10.6783 1.54855 10.4947C2.70523 9.0952 3.3761 7.28269 3.3761 5.33253C3.39924 3.38237 2.70523 1.59281 1.54855 0.170343Z" transform="translate(30.7705 8.29224) scale(2)" fill="white"/>
<path d="M1.56571 0.153279C1.40378 -0.0302655 1.12617 -0.0531973 0.941106 0.107404L0.15456 0.795696C-0.0305086 0.956298 -0.0305114 1.20867 0.10829 1.39221C1.47317 3.04411 2.30598 5.15488 2.30598 7.44918C2.30598 9.74349 1.47317 11.8543 0.10829 13.5062C-0.053645 13.6897 -0.0305086 13.965 0.15456 14.1027L0.941106 14.791C1.12617 14.9516 1.40378 14.9516 1.56571 14.7451C3.25446 12.772 4.2492 10.2023 4.2492 7.42623C4.2492 4.69601 3.23133 2.12638 1.56571 0.153279Z" transform="translate(35.502 4.01306) scale(2)" fill="white"/>
</svg>
