<?xml version="1.0" encoding="utf-8"?>
<!-- Generator: Adobe Illustrator 21.1.0, SVG Export Plug-In . SVG Version: 6.00 Build 0)  -->
<svg version="1.1" id="Layer_1" xmlns="http://www.w3.org/2000/svg" xmlns:xlink="http://www.w3.org/1999/xlink" x="0px" y="0px"
	 viewBox="0 0 3009.6 1618.5" style="enable-background:new 0 0 3009.6 1618.5;" xml:space="preserve">
<style type="text/css">
	.st0{fill:#E4E0D1;}
	.st1{fill:none;stroke:#000000;}
	.st2{fill:none;stroke:#000000;stroke-width:2;}
	.st3{fill:none;stroke:#000000;stroke-width:1.8893;}
	.st4{fill:none;stroke:#000000;stroke-width:3;}
	.st5{clip-path:url(#SVGID_2_);}
	.st6{clip-path:url(#SVGID_4_);}
</style>
<path class="st0" d="M1508.2,436.5l833,390.2c1,0.4,2.1,0,2.5-1c2.4-6.4,12.6-26.2,41.5-6.4c0.1,0.1,0.3,0.2,0.4,0.3l17.9,21.4
	c0.4,0.5,0.5,1.1,0.3,1.7l-2.3,6.9c-0.3,0.8,0.1,1.8,0.9,2.2L2524,915c1.2,0.6,1.3,2.4,0.2,3.1c-6.1,3.9-16.9,15.1,23.3,30.6
	c1,0.4,1.4,1.5,1,2.4l-0.8,1.8c-4.8,10.4-10.4,20.3-16.7,29.9c-21.1,32.1-3.7,61.1,0.5,67.2c0.5,0.7,0.4,1.6-0.2,2.2l-36.1,39
	c-0.5,0.6-0.6,1.4-0.2,2.1c1.9,3.3,5,13.3-23.7,13.5c-0.4,0-0.8,0.2-1.2,0.4l-51.9,44.5c-0.6,0.5-0.8,1.3-0.5,2.1l67.6,165.2
	c0,0,6,17.7,148-13.3c0.3-0.1,0.7-0.1,1,0.1c9.1,3.2,148.5,52.3,245.1,49.1c1.3,0,2.2,1.2,1.8,2.4l-15.7,45.1
	c-4.3,12.4-17.8,19-30.2,14.8c-35.9-12-110.1-32.7-182.9-27.9c-1.5,0.1-2.4-1.5-1.7-2.7c5.6-9,16.2-35.2-49.6-36.4
	c-44.1-0.8-54.3,13.3-54.7,26c-0.4,12.6-8.5,23.6-20.6,26.9l-36.1,9.9c-9.9,2.7-20.5-0.2-27.7-7.5c-7.5-7.5-21.4-16.1-46.6-18.9
	c-46.6-5.1-114.9,21.5-112,53.9c0.1,1.4-1.3,2.4-2.5,1.8l-128-57.8c-1.2-0.5-2.5,0.3-2.5,1.6l-0.1,80.7c0,1-0.8,1.8-1.8,1.8h-33
	c-1,0-1.8-0.8-1.8-1.8V1412c0-0.2,0-0.4-0.1-0.5c-4-13.4-38.9-29.5-50.9-22.7l-79.8,45.4c-0.5,0.3-1.1,0.3-1.7,0.1l-10.7-5.1
	c-9.2-4.5-11.2-16.7-4-23.9l36.3-36.3c0.5-0.5,0.7-1.3,0.4-1.9c-78.5-208.8-281.8-204.5-326.5-201c-5.6,0.5-11.2-1.7-15.3-6.2
	l-0.4-0.4c-113.9-122.9-269.2-199.4-436.1-214.7l0,0c-0.6-0.1-1.2,0.2-1.6,0.7l-33.1,40.8c-7.1,8.2-18.4,11.3-28.7,7.9l-41.8-13.6
	c-1.1-0.4-1.6-1.6-1-2.6l10.3-17.9c0-0.1,0.1-0.1,0.1-0.2c13.5-17.3,3.3-42.9-18.5-45.9c-12.9-1.8-26.1-2-36.1,1.7
	c-27.9,10.4-65.1,53.6-165.8,28.5h-0.1L720,879.4C588,832.1,450.2,803,310.4,793l-174.2-12.5c-0.9-0.1-1.7-0.9-1.7-1.8v-38.2
	L133,367.2c0-1,0.8-1.8,1.8-1.8h1239c0.7,0,1.3-0.4,1.6-1c3.3-7,25.1-47.2,86.4-24.2C1461.9,340.1,1462.4,384.6,1508.2,436.5z"/>
<path class="st1" d="M5666,1308.5l-46.8-19.4c-2.4-1-5-1.5-7.7-1.5H4524.1c-11,0-20,9-20,20v397.2c0,11,9,20,20,20h45.2
	c11,0,20,9,20,20v26.2c0,11,9,20,20,20h32.4c5.3,0,10.4-2.1,14.2-5.9l6.4-6.4c3.8-3.8,8.8-5.9,14.2-5.9h107.1c2.6,0,5.2,0.5,7.6,1.5
	l349.6,143.2c2.4,1,5,1.5,7.6,1.5h95.6c1.8,0,3.6-0.2,5.3-0.7l157.4-43.5c12.7-3.5,25.3,6.1,25.3,19.3v21c0,11,9,20,20,20h51.2
	c3.6,0,7.1-1,10.2-2.8l68.4-40.3c3.1-1.8,6.6-2.8,10.2-2.8h79.8c4,0,7.9,1.2,11.2,3.4l211.7,143.6c3.3,2.2,7.2,3.4,11.2,3.4h44.5
	c3.2,0,6.3,0.7,9.1,2.2l185.7,94.6c1.9,1,3.6,2.2,5.1,3.7l59.9,60c2.6,2.6,5.8,4.4,9.3,5.3l75.3,18.8c7.9,2,13.8,8.6,15,16.7
	l12.8,93.1c1.4,9.9,9.8,17.3,19.8,17.3h46.1c5.8,0,11.2,2.5,15,6.8l27.5,31.2c3.8,4.3,9.3,6.8,15,6.8h14.1c8.5,0,16-5.3,18.8-13.3
	l6.5-18.3c2.8-8,10.4-13.3,18.8-13.3h22.3c2.5,0,4.9,0.5,7.2,1.4l30.1,11.7c2.3,0.9,4.8,1.4,7.3,1.4h7.6c10.6,0,19.2-8.6,19.2-19.2
	c0-10.6,8.6-19.2,19.2-19.2h459c11,0,20-9,20-20v-45.8c0-11-9-20-20-20h-256.3c-8,0-15.3-4.8-18.4-12.2l-74.3-175.7
	c-3.7-8.7-0.8-18.7,6.9-24.2l108.9-76.5c5.3-3.7,8.5-9.9,8.5-16.4v-75.6c0-7.9-4.6-15-11.8-18.2l-1011.1-457.8
	c-3.9-1.8-7.2-4.8-9.2-8.5l-43.5-78.3c-3.5-6.4-10.2-10.3-17.5-10.3h-44.5c-5,0-9.9,1.9-13.6,5.3l-12.9,11.9
	C5681.5,1310,5673.3,1311.5,5666,1308.5z"/>
<circle class="st2" cx="6617" cy="1357.8" r="20"/>
<circle class="st2" cx="6404" cy="1011.3" r="20"/>
<circle class="st2" cx="6430.6" cy="1226.8" r="20"/>
<circle class="st2" cx="4841.7" cy="500.4" r="20"/>
<path class="st3" d="M6914.2,953.1l1.7-3.6c-53.1-19.9-22.3-32.8-22.3-32.8l-126.2-65.3l3.1-9.3l-18.7-22.4
	c-34.2-23.6-42.3,8.1-42.3,8.1l-835.4-391.3l-31.7-59.3c0,0-9.9-10.9,13.7-10.9l0.4-13.6h-27v-11.9c-67.9-26.1-88,24.8-88,24.8
	h-1242l1.4,375.1v39.8L4677,793c139.8,10.1,277.6,39.1,409.6,86.4l208.9,64.8c100.7,25.2,138-18.1,165.9-28.5
	c10-3.7,23.2-3.5,36.1-1.7c21.8,3,32,28.7,18.4,45.9l-11.4,19.9l43.9,14.3c10.3,3.4,21.6,0.2,28.7-7.9l33.7-41.5l1.6,0.2
	c166.4,15.3,321.3,91.6,434.9,214.1l0.9,0.9c4.1,4.4,9.6,6.6,15.3,6.2c44.7-3.6,248.6-7.8,326.9,202.1l-37.1,37.1
	c-7.2,7.2-5.2,19.4,4,23.9l11.5,5.5l80.6-45.8c12.1-6.9,47.4,9.5,51,22.9v42.8c0,7.8,6.3,14.1,14.1,14.1h22.6l0.1-85.3l133.5,60.3
	c-7.9-33.8,63.4-62.3,111.5-57.1c26,2.9,40,11.9,47.3,19.6c6.6,7,16.7,9.6,26,7l38.3-10.5c11.4-3.1,19.7-13.5,19.4-25.4
	c-0.3-13,9.2-28.1,54.7-27.2c79.6,1.5,47.5,39.4,47.5,39.4c75-5.9,152.4,16.1,188.3,28.2c11.5,3.9,24-2.2,28-13.7l17.2-49.3
	c-99.9,4.4-248.2-49.1-248.2-49.1C6858,1336.7,6852,1319,6852,1319l-68.1-166.4l53.4-45.8c35.3,0,23.6-14.5,23.6-14.5l38-41.2
	c0,0-25.1-32.3-1.2-68.4C6903.9,973.2,6909.5,963.3,6914.2,953.1z"/>
<circle class="st4" cx="2250.5" cy="1357.8" r="20"/>
<circle class="st4" cx="2037.4" cy="1011.3" r="20"/>
<circle class="st4" cx="2064" cy="1226.8" r="20"/>
<circle class="st4" cx="475.1" cy="500.4" r="20"/>
<g>
	<g>
		<g>
			<defs>
				<rect id="SVGID_1_" x="7813.7" y="2265.6" width="3136.8" height="2029.7"/>
			</defs>
			<clipPath id="SVGID_2_">
				<use xlink:href="#SVGID_1_"  style="overflow:visible;"/>
			</clipPath>
			<g class="st5">
				<g>
					<defs>
						<rect id="SVGID_3_" x="7813.7" y="2265.6" width="3136.8" height="2029.7"/>
					</defs>
					<clipPath id="SVGID_4_">
						<use xlink:href="#SVGID_3_"  style="overflow:visible;"/>
					</clipPath>
					<g class="st6">
						
							<image style="overflow:visible;enable-background:new    ;" width="3300" height="5100" xlink:href="1E41B4C4B715E7D.jpg"  transform="matrix(-1.129737e-16 0.615 -0.615 -1.129737e-16 10950.4199 2265.6345)">
						</image>
					</g>
				</g>
			</g>
		</g>
	</g>
</g>
</svg>
