<svg width="2600" height="1116" viewBox="0 0 2600 1116" fill="none" xmlns="http://www.w3.org/2000/svg">
  <path d="M580.958 10.4673L557.539 0.76188C556.325 0.258892 555.024 0 553.71 0H10C4.47717 0 0 4.47715 0 10V208.606C0 214.129 4.47715 218.606 10 218.606H32.6125C38.1353 218.606 42.6125 223.083 42.6125 228.606V241.685C42.6125 247.208 47.0896 251.685 52.6125 251.685H68.8271C71.4821 251.685 74.0282 250.629 75.904 248.75L79.0994 245.55C80.9752 243.671 83.5212 242.615 86.1762 242.615H139.718C141.018 242.615 142.306 242.868 143.509 243.361L318.306 314.963C319.509 315.455 320.797 315.709 322.097 315.709H369.907C370.807 315.709 371.703 315.587 372.571 315.348L451.283 293.598C457.652 291.839 463.946 296.63 463.946 303.237V313.712C463.946 319.235 468.423 323.712 473.946 323.712H499.567C501.355 323.712 503.109 323.233 504.649 322.325L538.83 302.157C540.37 301.249 542.124 300.77 543.912 300.77H583.794C585.796 300.77 587.751 301.371 589.408 302.494L695.242 374.274C696.898 375.398 698.853 375.998 700.855 375.998H723.083C724.66 375.998 726.214 376.371 727.62 377.087L820.477 424.362C821.415 424.84 822.272 425.463 823.016 426.208L852.959 456.2C854.241 457.484 855.848 458.395 857.607 458.836L895.237 468.258C899.197 469.25 902.157 472.55 902.714 476.595L909.125 523.154C909.807 528.103 914.036 531.79 919.032 531.79H942.103C944.978 531.79 947.714 533.027 949.612 535.186L963.347 550.802C965.246 552.961 967.982 554.198 970.856 554.198H977.926C982.154 554.198 985.925 551.539 987.345 547.557L990.599 538.431C992.019 534.449 995.79 531.79 1000.02 531.79H1011.18C1012.42 531.79 1013.65 532.02 1014.8 532.469L1029.85 538.32C1031.01 538.77 1032.24 539 1033.48 539H1037.28C1042.59 539 1046.9 534.695 1046.9 529.385C1046.9 524.074 1051.2 519.769 1056.51 519.769H1286C1291.52 519.769 1296 515.292 1296 509.769V486.85C1296 481.327 1291.52 476.85 1286 476.85H1157.83C1153.82 476.85 1150.19 474.446 1148.62 470.747L1111.45 382.883C1109.61 378.544 1111.05 373.512 1114.91 370.804L1169.34 332.56C1172.01 330.687 1173.6 327.634 1173.6 324.377V286.587C1173.6 282.66 1171.3 279.096 1167.72 277.477L662.148 48.5737C660.191 47.6876 658.571 46.1947 657.529 44.3161L635.794 5.14781C634.031 1.97079 630.683 0 627.05 0H604.776C602.263 0 599.842 0.945907 597.995 2.64953L591.567 8.57969C588.701 11.2232 584.56 11.96 580.958 10.4673Z" transform="translate(4 4) scale(2)" stroke="white" stroke-width="3"/>
  <circle cx="10" cy="10" r="10" transform="translate(2025.67 990.22) scale(2)" fill="white"/>
  <circle cx="10" cy="10" r="10" transform="translate(1812.63 643.707) scale(2)" fill="white"/>
  <circle cx="10" cy="10" r="10" transform="translate(1839.26 859.167) scale(2)" fill="white"/>
  <circle cx="10" cy="10" r="10" transform="translate(250.328 132.823) scale(2)" fill="white"/>
  <circle cx="10" cy="10" r="10" transform="translate(509.973 397.15) scale(2)" fill="white"/>
</svg>
