<svg xmlns="http://www.w3.org/2000/svg" viewBox="0 0 707.03 302.91">
  <g id="Layer_2" data-name="Layer 2">
    <g id="Layer_1-2" data-name="Layer 1"><path
      d="M317,6.2,304.23.92A5.45,5.45,0,0,0,302.15.5H5.95A5.45,5.45,0,0,0,.5,5.95v108.2a5.45,5.45,0,0,0,5.45,5.45H18.27A5.45,5.45,0,0,1,23.71,125v7.13a5.45,5.45,0,0,0,5.45,5.45H38a5.45,5.45,0,0,0,3.86-1.6l1.74-1.74a5.45,5.45,0,0,1,3.86-1.6H76.62a5.45,5.45,0,0,1,2.07.41l95.23,39a5.46,5.46,0,0,0,2.07.41h26a5.47,5.47,0,0,0,1.45-.2l42.88-11.85a5.45,5.45,0,0,1,6.9,5.25v5.71a5.45,5.45,0,0,0,5.45,5.45h14a5.45,5.45,0,0,0,2.77-.76l18.62-11a5.45,5.45,0,0,1,2.77-.76h21.73a5.45,5.45,0,0,1,3.06.94l57.66,39.1a5.44,5.44,0,0,0,3.06.94h12.11a5.45,5.45,0,0,1,2.47.59l50.59,25.75a5.46,5.46,0,0,1,1.38,1L465.17,249a5.45,5.45,0,0,0,2.53,1.44l20.5,5.13a5.45,5.45,0,0,1,4.07,4.54l3.49,25.36a5.45,5.45,0,0,0,5.4,4.7h12.57a5.45,5.45,0,0,1,4.09,1.85l7.48,8.51a5.45,5.45,0,0,0,4.09,1.85h3.85a5.45,5.45,0,0,0,5.13-3.62l1.77-5a5.45,5.45,0,0,1,5.13-3.62h6.08a5.43,5.43,0,0,1,2,.37l8.2,3.19a5.47,5.47,0,0,0,2,.37h2.07a5.24,5.24,0,0,0,5.24-5.24,5.24,5.24,0,0,1,5.24-5.24h125a5.45,5.45,0,0,0,5.45-5.45V265.72a5.45,5.45,0,0,0-5.45-5.45H631.26a5.45,5.45,0,0,1-5-3.32L606,209.09a5.44,5.44,0,0,1,1.88-6.58l29.65-20.83a5.45,5.45,0,0,0,2.32-4.46V156.63a5.45,5.45,0,0,0-3.2-5L361.22,27a5.45,5.45,0,0,1-2.52-2.32L346.87,3.3A5.45,5.45,0,0,0,342.1.5H330a5.45,5.45,0,0,0-3.69,1.44l-3.5,3.23A5.45,5.45,0,0,1,317,6.2Z"
      style="fill:none;stroke:#fff"/>
      <circle cx="556.63" cy="274.58" r="5.45" style="fill:#fff"/>
      <circle cx="498.6" cy="180.2" r="5.45" style="fill:#fff"/>
      <circle cx="505.85" cy="238.89" r="5.45" style="fill:#fff"/>
      <circle cx="73.04" cy="41.04" r="5.45" style="fill:#fff"/>
      <circle cx="143.77" cy="113.04" r="5.45" style="fill:#fff"/>
    </g>
  </g>
</svg>
