<?xml version="1.0" encoding="utf-8"?>
<!-- Generator: Adobe Illustrator 21.1.0, SVG Export Plug-In . SVG Version: 6.00 Build 0)  -->
<svg version="1.1" baseProfile="basic" id="Layer_1"
	 xmlns="http://www.w3.org/2000/svg" xmlns:xlink="http://www.w3.org/1999/xlink" x="0px" y="0px" viewBox="0 0 707 302.9"
	 xml:space="preserve">
<style type="text/css">
	.st0{fill:none;stroke:#FFFFFF;stroke-miterlimit:10;}
	.st1{fill:none;stroke:#FFFFFF;}
</style>
<path class="st0" d="M353.6,35.8l212.3,99.4c0.3,0.1,0.5,0,0.6-0.3c0.6-1.6,3.2-6.7,10.6-1.6c0,0,0.1,0.1,0.1,0.1l4.6,5.5
	c0.1,0.1,0.1,0.3,0.1,0.4l-0.6,1.8c-0.1,0.2,0,0.5,0.2,0.6l31,16.1c0.3,0.2,0.3,0.6,0.1,0.8c-1.6,1-4.3,3.8,5.9,7.8
	c0.3,0.1,0.4,0.4,0.3,0.6l-0.2,0.5c-1.2,2.7-2.7,5.2-4.3,7.6c-5.4,8.2-0.9,15.6,0.1,17.1c0.1,0.2,0.1,0.4-0.1,0.6l-9.2,9.9
	c-0.1,0.2-0.2,0.4-0.1,0.5c0.5,0.8,1.3,3.4-6,3.4c-0.1,0-0.2,0.1-0.3,0.1L585.5,218c-0.2,0.1-0.2,0.3-0.1,0.5l17.2,42.1
	c0,0,1.5,4.5,37.7-3.4c0.1,0,0.2,0,0.3,0c2.3,0.8,37.8,13.3,62.5,12.5c0.3,0,0.6,0.3,0.5,0.6l-4,11.5c-1.1,3.2-4.5,4.8-7.7,3.8
	c-9.1-3.1-28.1-8.3-46.6-7.1c-0.4,0-0.6-0.4-0.4-0.7c1.4-2.3,4.1-9-12.6-9.3c-11.2-0.2-13.8,3.4-13.9,6.6c-0.1,3.2-2.2,6-5.2,6.9
	l-9.2,2.5c-2.5,0.7-5.2-0.1-7.1-1.9c-1.9-1.9-5.5-4.1-11.9-4.8c-11.9-1.3-29.3,5.5-28.5,13.7c0,0.4-0.3,0.6-0.6,0.5L523,277.4
	c-0.3-0.1-0.6,0.1-0.6,0.4l0,20.6c0,0.3-0.2,0.5-0.5,0.5h-8.4c-0.3,0-0.5-0.2-0.5-0.5v-14c0-0.1,0-0.1,0-0.1c-1-3.4-9.9-7.5-13-5.8
	L479.7,290c-0.1,0.1-0.3,0.1-0.4,0l-2.7-1.3c-2.3-1.1-2.9-4.3-1-6.1l9.2-9.2c0.1-0.1,0.2-0.3,0.1-0.5c-20-53.2-71.8-52.1-83.2-51.2
	c-1.4,0.1-2.9-0.4-3.9-1.6l-0.1-0.1c-29-31.3-68.6-50.8-111.1-54.7l0,0c-0.2,0-0.3,0.1-0.4,0.2l-8.4,10.4c-1.8,2.1-4.7,2.9-7.3,2
	l-10.7-3.5c-0.3-0.1-0.4-0.4-0.3-0.7l2.6-4.6c0,0,0,0,0-0.1c3.4-4.4,0.8-10.9-4.7-11.7c-3.3-0.5-6.7-0.5-9.2,0.4
	c-7.1,2.7-16.6,13.7-42.2,7.3h0l-53.2-16.5c-33.6-12.1-68.7-19.5-104.4-22L4,123.5c-0.2,0-0.4-0.2-0.4-0.5v-9.7L3.2,18.1
	c0-0.3,0.2-0.5,0.5-0.5h315.7c0.2,0,0.3-0.1,0.4-0.3c0.8-1.8,6.4-12,22-6.2C341.8,11.2,341.9,22.6,353.6,35.8z"/>
<circle class="st1" cx="542.8" cy="270.6" r="5.1"/>
<circle class="st1" cx="488.5" cy="182.3" r="5.1"/>
<circle class="st1" cx="495.2" cy="237.2" r="5.1"/>
<circle class="st1" cx="90.4" cy="52.1" r="5.1"/>
</svg>
