<svg width="192" height="166" viewBox="0 0 192 166" fill="none" xmlns="http://www.w3.org/2000/svg">
<path d="M105.8 1.42745C100.6 -0.972551 94.6 -0.37255 90 3.42745L42.7999 42.0274L18 44.4274C7.8 45.4274 0 53.8274 0 64.2274V101.427C0 111.627 7.8 120.227 18 121.227L42.7999 123.627L90 162.227C92.8 164.427 95.9999 165.627 99.3999 165.627C101.6 165.627 103.8 165.227 105.8 164.227C111 161.827 114.2 156.627 114.2 150.827V15.4274C114.4 9.02745 111 4.02745 105.8 1.42745ZM97 145.027L50 106.427L19.7999 103.627C18.5999 103.427 17.6 102.427 17.6 101.227V64.0274C17.6 62.8274 18.5999 61.6274 19.7999 61.6274L50 58.8274L97 20.2274V145.027Z" fill="white"/>
</svg>
